<?xml version="1.0" encoding="utf-8"?>
<!-- Generator: Adobe Illustrator 16.2.1, SVG Export Plug-In . SVG Version: 6.00 Build 0)  -->
<!DOCTYPE svg PUBLIC "-//W3C//DTD SVG 1.1//EN" "http://www.w3.org/Graphics/SVG/1.1/DTD/svg11.dtd">
<svg version="1.1" id="Layer_1" xmlns="http://www.w3.org/2000/svg" xmlns:xlink="http://www.w3.org/1999/xlink" x="0px" y="0px"
	 width="364px" height="40px" viewBox="0 0 364 40" enable-background="new 0 0 364 40" xml:space="preserve">
<g>
	<defs>
		<rect id="SVGID_1_" x="0.06" y="0.04" width="363.346" height="39.96"/>
	</defs>
	<clipPath id="SVGID_2_">
		<use xlink:href="#SVGID_1_"  overflow="visible"/>
	</clipPath>
	<path clip-path="url(#SVGID_2_)" fill="#FFFFFF" d="M24.117,29.575V28.72c2.165-0.25,2.973-1.158,2.82-4.081L26.082,5.762
		l-9.059,23.613h-1.161L6.598,5.762L5.791,23.485c-0.151,3.726,0.65,4.73,3.473,5.234v0.855H0V28.72
		c2.62-0.301,3.674-1.712,3.877-5.488L4.782,5.607c0.154-3.323-2.058-3.726-3.574-4.026V0.723h7.603l8.712,22.354l8.506-22.2h7.205
		v0.907c-2.269,0.198-3.374,1.309-3.278,3.924l0.855,18.078c0.154,3.472,1.158,4.684,3.728,4.934v0.855H24.117"/>
</g>
<path fill="#FFFFFF" d="M44.205,30.078c-6.193,0-8.558-4.33-8.558-8.559c0-5.338,4.024-10.174,9.413-10.174
	c2.215,0,4.13,0.557,5.389,1.568c-0.053,1.052-0.604,2.466-1.161,3.167l-0.348,0.053c-1.463-1.915-3.476-2.615-5.241-2.615
	c-1.206,0-2.415,0.296-3.27,1.15c-0.908,0.908-1.406,2.423-1.406,4.485c0,4.432,1.862,8.659,6.844,8.659
	c1.762,0,3.624-0.5,5.286-1.507l0.404,0.857C49.845,29.018,46.772,30.078,44.205,30.078"/>
<path fill="#FFFFFF" d="M72.294,29.575c-3.978-4.482-7.652-9.115-11.077-13.341l-1.36,1.507v1.612c0,8.658,0,8.914,3.277,9.367
	v0.855H52.807V28.72c2.973-0.25,3.276-0.757,3.276-8.812V9.937c0-7.452-0.151-8.103-3.276-8.356V0.723h10.327v0.858
	c-2.923,0.401-3.277,0.857-3.277,8.259v5.433l7.602-8.407c1.866-2.012,2.016-3.07,2.016-3.674c0-0.908-0.507-1.358-1.763-1.611
	V0.723h9.665v0.858c-2.819,0.103-4.428,1.765-7.452,5.088l-6.19,6.849c1.913,2.468,5.186,6.39,7.145,8.708
	c5.089,5.888,6.706,6.341,8.311,6.494v0.855H72.294"/>
<path fill="#FFFFFF" d="M83.87,6.515c-1.313,0-2.262-1.007-2.262-2.315c0-1.311,0.949-2.319,2.262-2.319
	c1.312,0,2.317,1.008,2.317,2.319C86.187,5.508,85.182,6.515,83.87,6.515 M79.092,29.575V28.72c3.17-0.149,3.22-0.149,3.22-6.547
	v-4.432c0-5.032-0.354-5.184-3.273-5.285v-0.858h6.745v10.627c0,6.345,0.099,6.291,2.919,6.494v0.855H79.092z"/>
<path fill="#FFFFFF" d="M103.002,29.575V28.72c2.57-0.153,2.769-0.203,2.769-6.196v-3.622c0-4.335-1.761-5.288-3.975-5.288
	c-2.719,0-4.99,2.061-4.99,3.728v4.884c0,6.341,0.106,6.291,2.925,6.494v0.855h-9.617V28.72c3.168-0.153,3.224-0.153,3.224-6.547
	v-4.432c0-5.035-0.357-5.184-3.275-5.285v-0.858h6.743v3.227c1.865-2.369,4.281-3.48,6.603-3.48c2.866,0,5.84,1.715,5.84,7.154
	v4.024c0,5.993,0,6.043,3.169,6.196v0.855H103.002"/>
<path fill="#FFFFFF" d="M120.367,30.029c-2.367,0-5.236-0.603-5.94-1.763c-0.254-0.402-0.453-2.819-0.453-4.131h1.054
	c0.708,3.225,2.873,4.586,5.44,4.586c2.613,0,4.18-1.011,4.18-2.668c0-4.939-10.324-3.726-10.324-9.773
	c0-2.766,2.166-5.083,5.893-5.083c2.516,0,5.085,0.705,5.286,0.908c0.203,0.197,0.504,1.863,0.504,4.478h-0.81
	c-0.301-1.06-1.807-4.177-5.181-4.177c-1.664,0-3.023,0.751-3.023,2.263c0,4.285,10.268,3.273,10.268,9.921
	C127.261,27.563,124.648,30.029,120.367,30.029"/>
<path fill="#FFFFFF" d="M143.023,17.897h-9.263c0.301-3.328,1.811-5.189,4.681-5.189C141.261,12.708,142.97,14.569,143.023,17.897
	 M146.297,27.156l-0.403-0.854c-1.659,1.009-3.525,1.513-5.29,1.513c-4.982,0-7.047-4.481-6.895-8.56h12.588
	c0.204-4.132-1.965-8.057-7.151-8.057c-5.233,0-8.76,4.181-8.76,9.969c0,4.53,2.316,8.913,8.562,8.913
	C141.511,30.08,144.587,29.018,146.297,27.156"/>
<path fill="#FFFFFF" d="M163.308,15.983l-3.579,10.167c-2.364,6.697-3.672,11.129-10.376,13.85c-0.496-0.458-1.455-1.969-1.713-2.82
	c5.089-1.161,7.611-3.374,9.221-7.503l-4.683-10.423c-2.77-6.144-2.972-6.447-5.038-6.548v-0.852h8.406v0.852
	c-1.305,0.152-1.709,0.557-1.709,1.262c0,0.754,0.353,1.611,1.259,3.776l3.376,7.906l3.47-10.222
	c0.605-1.763-0.25-2.621-1.811-2.722v-0.852h6.497v0.852C165.369,12.706,164.109,13.665,163.308,15.983"/>
<g>
	<defs>
		<rect id="SVGID_3_" x="0.06" y="0.04" width="363.346" height="39.96"/>
	</defs>
	<clipPath id="SVGID_4_">
		<use xlink:href="#SVGID_3_"  overflow="visible"/>
	</clipPath>
	<path clip-path="url(#SVGID_4_)" fill="#FFFFFF" d="M187.371,26.001c-1.511,1.161-4.079,1.512-6.137,1.512
		c-5.293,0-9.471-3.727-9.471-8.716c0-3.122,1.358-5.08,3.421-5.636C177.706,17.641,182.438,22.374,187.371,26.001 M199.057,29.575
		v-0.858c-2.019-0.2-5.042-1.864-8.263-4.228c1.158-1.909,1.409-4.682,1.712-6.748c0.253-1.758,1.56-1.709,2.416-1.811v-0.801
		h-8.155v0.801c1.918,0.251,3.78,0.504,3.78,3.476c0,1.556-0.259,3.118-0.964,4.179c-7.145-5.59-13.741-13.345-13.741-17.222
		c0-1.912,1.158-2.82,3.019-2.82c2.317,0,4.532,1.564,5.59,4.585h0.806l-0.103-5.439h-0.808c-0.05,0.354-0.396,0.604-0.601,0.604
		c-1.004,0-2.413-1.108-4.885-1.108c-2.713,0-5.538,1.715-5.538,5.432c0,1.417,0.456,2.724,1.212,4.235
		c-3.726,1.161-5.691,4.382-5.691,8.056c0,6.695,5.086,10.32,10.824,10.32c3.577,0,6.394-1.106,9.017-3.319
		c1.604,1.159,3.215,2.261,4.176,2.666H199.057z"/>
	<path clip-path="url(#SVGID_4_)" fill="#FFFFFF" d="M213.345,30.281c-8.349,0-13.641-5.539-13.641-14.352
		c0-9.211,5.745-15.911,14.346-15.911c4.283,0,5.896,1.209,7.607,1.209c0.758,0,1.256-0.301,1.562-0.905h0.808l0.301,8.609h-0.858
		c-1.411-4.982-4.283-7.501-9.263-7.501c-6.447,0-10.369,4.531-10.369,12.637c0,8.407,4.023,14.046,10.771,14.046
		c3.779,0,7.45-1.662,9.166-3.976l0.804,0.905C223.013,27.612,218.785,30.281,213.345,30.281"/>
</g>
<path fill="#FFFFFF" d="M242.292,21.77c0,4.182-1.863,6.75-5.64,6.75c-3.275,0-6.342-3.023-6.342-9.114c0-4.335,2.061-6.7,5.537-6.7
	C239.071,12.706,242.292,15.83,242.292,21.77 M245.863,20.612c0-3.475-1.408-6.396-3.977-8.004c-1.509-0.957-3.42-1.41-5.535-1.41
	c-5.643,0-9.62,4.128-9.62,9.414c0,3.525,1.415,6.443,3.978,8.055c1.512,0.961,3.475,1.364,5.589,1.364
	C241.887,30.031,245.863,26,245.863,20.612"/>
<path fill="#FFFFFF" d="M272.497,29.575V28.72c2.619-0.203,2.667-0.453,2.667-5.892V18.7c0-3.728-1.456-5.086-3.727-5.086
	c-2.669,0-4.98,2.012-4.98,3.827v5.083c0,5.692-0.054,5.946,2.916,6.196v0.855h-8.96V28.72c2.515-0.153,2.67-0.453,2.67-6.393V18.7
	c0-3.574-1.162-5.086-3.88-5.086c-2.518,0-4.881,2.012-4.881,3.874v5.24c0,5.742,0.251,5.742,2.918,5.992v0.855h-9.515V28.72
	c3.023-0.053,3.12-0.053,3.12-5.84v-5.139c0-5.035-0.35-5.184-3.273-5.285v-0.858h6.75v3.227c1.405-1.915,3.826-3.48,6.292-3.48
	c3.021,0,4.782,1.462,5.487,3.928c1.659-2.311,3.981-3.928,6.847-3.928c3.176,0,5.895,1.862,5.895,6.851v4.684
	c0,5.233-0.152,5.687,3.116,5.84v0.855H272.497"/>
<path fill="#FFFFFF" d="M299.475,20.964c0,4.684-1.963,7.703-5.641,7.703c-2.362,0-4.982-1.355-4.982-3.121v-8.91
	c0-1.509,2.165-3.022,4.586-3.022C297.158,13.614,299.475,16.386,299.475,20.964 M303.101,20.511c0-5.235-3.377-9.166-8.052-9.166
	c-2.62,0-4.736,1.212-6.197,2.922v-2.669h-6.593v0.858c2.77,0.101,3.119,0.25,3.119,6.146V30.88c0,6.399,0.154,6.903-2.972,7.054
	v0.857h9.615v-0.857c-3.423-0.101-3.17-0.654-3.17-7.349v-2.472c1.361,1.36,3.476,1.918,5.388,1.918
	C299.674,30.031,303.101,25.951,303.101,20.511"/>
<path fill="#FFFFFF" d="M315.737,25.299c0,1.506-2.013,2.763-3.625,2.763c-1.515,0-2.771-0.958-2.771-3.019
	c0-3.674,3.828-3.273,6.396-4.684V25.299 M323.185,29.578v-0.861h-1.055c-2.515,0-2.815-0.854-2.815-4.432v-6.037
	c0-1.161-0.104-2.216-0.353-3.073c-0.855-2.82-3.173-3.83-6.345-3.83c-1.965,0-4.832,0.71-6.396,2.069
	c0.102,0.853,0.857,2.515,1.36,3.023l0.453-0.101c0.803-1.965,2.165-3.377,4.329-3.377c2.364,0,3.373,1.662,3.373,3.624v2.069
	c0,1.361-6.04,1.609-8.507,3.673c-0.854,0.752-1.465,1.712-1.465,3.021c0,2.817,1.969,4.682,4.936,4.682
	c1.863,0,3.476-0.604,5.135-2.47c0.254,1.309,1.362,2.02,3.126,2.02H323.185z"/>
<path fill="#FFFFFF" d="M335.773,29.575V28.72c2.565-0.153,2.767-0.203,2.767-6.196v-3.622c0-4.335-1.766-5.288-3.979-5.288
	c-2.716,0-4.98,2.061-4.98,3.728v4.884c0,6.341,0.097,6.291,2.917,6.494v0.855h-9.618V28.72c3.17-0.153,3.227-0.153,3.227-6.547
	v-4.432c0-5.035-0.354-5.184-3.273-5.285v-0.858h6.748v3.227c1.861-2.369,4.278-3.48,6.589-3.48c2.873,0,5.837,1.715,5.837,7.154
	v4.024c0,5.993,0,6.043,3.177,6.196v0.855H335.773"/>
<path fill="#FFFFFF" d="M360.08,15.983l-3.575,10.167c-2.366,6.697-3.673,11.129-10.377,13.85c-0.499-0.458-1.459-1.969-1.709-2.82
	c5.086-1.161,7.605-3.374,9.216-7.503l-4.68-10.423c-2.772-6.144-2.975-6.447-5.039-6.548v-0.852h8.409v0.852
	c-1.311,0.152-1.709,0.557-1.709,1.262c0,0.754,0.352,1.611,1.255,3.776l3.376,7.906l3.474-10.222
	c0.605-1.763-0.253-2.621-1.812-2.722v-0.852h6.497v0.852C362.141,12.706,360.884,13.665,360.08,15.983"/>
</svg>
